<mxfile host="app.diagrams.net" modified="2024-04-19T12:29:21.654Z" agent="Mozilla/5.0 (Windows NT 10.0; Win64; x64) AppleWebKit/537.36 (KHTML, like Gecko) Chrome/123.0.0.0 Safari/537.36" version="24.2.1" etag="S_niHuyGgScH-o7rapL3" type="github">
  <diagram name="Page-1" id="pbLC4jJDXnATH-ej2ZkQ">
    <mxGraphModel>
      <root>
        <mxCell id="0" />
        <mxCell id="1" parent="0" />
      </root>
    </mxGraphModel>
  </diagram>
</mxfile>
